<svg width="44" height="43" viewBox="0 0 44 43" fill="none" xmlns="http://www.w3.org/2000/svg">
<path d="M25.8001 33.1C22.3001 31.8 18.7001 31.6 15.4001 32.5C13.1001 33.1 10.9001 34.3 8.90012 35.8L7.50009 37L7.1001 37.4L8.00009 38.2C8.10009 38.2 8.1001 38.3 8.2001 38.4C8.4001 38.6 8.60012 38.7 8.90012 38.9L9.50009 39.3L10.1001 38.8C10.2001 38.7 10.4001 38.5 10.6001 38.4C12.4001 36.9 14.4001 35.9 16.5001 35.4C19.2001 34.7 22.1001 34.8 25.0001 35.9C27.4001 36.8 32.3001 37.9 38.2001 35.4L38.4001 35.3L38.7001 35C38.7001 34.9 38.8001 34.9 38.9001 34.8C39.4001 34.2 39.9001 33.6 40.3001 32.9L42.3001 29.8L39.1001 31.6C34.4001 34.2 30.1001 34.7 25.8001 33.1Z" fill="url(#paint0_linear_17_727)"/>
<path d="M12.1 22.3C14.8 21.6 17.7 21.7 20.6 22.8C23.8 24 32 25.7 41.2 17.4L42.7 15.9L42.8 15.8L43.2 15.4L43 14.9C42.9 14.5 42.7 14 42.5 13.5L42 12.1L41 13.1C40.9 13.3 40.7 13.4 40.5 13.6C36.1 18.1 29.3 22.7 21.5 19.9C18 18.6 14.4 18.4 11.1 19.3C7.90001 20.2 5.1 21.9 2.5 24.3V24.2L1 25.8C1 25.9 0.900018 25.9 0.800018 26L0.5 26.3L0.600006 26.7C0.700006 27.2 0.9 27.7 1 28.2L1.60001 29.8L2.60001 28.5C2.70001 28.3 2.9 28.2 3 28C5.1 26.1 8.00001 23.4 12.1 22.3Z" fill="url(#paint1_linear_17_727)"/>
<path d="M2.40002 20.5C4.70002 18.1 7.30001 16.6 10.1 15.8C12.8 15.1 15.7 15.2 18.6 16.3C27.6 19.6 35.4 14.2 38.8 11.3L40.1 10L40.6 9.59998L40.2 9C39.9 8.7 39.7 8.29999 39.4 7.89999L38.8 7.09998L38.1 7.79999C38 7.89999 37.8 8.09998 37.7 8.19998C33.5 12.2 27 16.3 19.6 13.5C16.1 12.2 12.5 12 9.20001 12.9C7.10001 13.5 5.10001 14.5 3.10001 15.8L1 17.5C0.8 17.7 0.7 17.8 0.5 18L0.300018 18.2V18.5C0.200018 19.2 0.200006 19.9 0.100006 20.5L0 23L1.70001 21.2C1.90001 21 2.10002 20.7 2.40002 20.5Z" fill="url(#paint2_linear_17_727)"/>
<path d="M28.6999 39.9L28.4999 40.5L28.6999 39.9C28.3999 39.8 28.1999 39.7 27.8999 39.6C24.3999 38.3 20.7999 38.1 17.4999 39C16.7999 39.2 16.0999 39.4 15.3999 39.7L12.9999 40.8L12.3999 41.1L14.3999 41.8C14.9999 42 15.5999 42.2 16.1999 42.4L16.4999 42.5L16.7999 42.4C17.0999 42.3 17.3999 42.1 17.6999 42.1C17.8999 42.1 18.0999 42 18.2999 41.9C20.6999 41.3 23.2999 41.3 26.0999 42.2C26.3999 42.3 26.5999 42.4 26.8999 42.5L27.3999 42.7L27.6999 42.6C28.3999 42.4 29.1999 42.2 29.7999 41.9L32.5999 40.9L29.6999 40.2C29.3999 40.1 28.9999 40 28.6999 39.9Z" fill="url(#paint3_linear_17_727)"/>
<path d="M43.9998 19.2L42.4998 20.7C42.2998 20.9 42.0998 21.1 41.8998 21.3C37.7998 25.2 31.1998 29.4 23.7998 26.6C20.2998 25.3 16.6998 25.1 13.3998 26C10.2998 26.9 7.49979 28.5 4.99979 30.9L3.6998 32.3L3.2998 32.8L3.6998 33.4C3.9998 33.8 4.19981 34.1 4.39981 34.5L4.99979 35.4L5.6998 34.5C5.7998 34.4 5.99979 34.2 6.09979 34.1C8.49979 31.5 11.0998 29.9 14.0998 29.1C16.7998 28.4 19.6998 28.5 22.5998 29.6C25.0998 30.5 27.6998 30.8 30.2998 30.5C34.8998 30 39.4998 27.4 42.8998 24.5C43.0998 24.3 43.2998 24.2 43.4998 24L43.7998 23.7V23.4C43.7998 22.8 43.8998 22.1 43.8998 21.5L43.9998 19.2Z" fill="url(#paint4_linear_17_727)"/>
<path d="M6.00018 10L5.7002 9.39999L6.00018 10C6.60018 9.7 7.30021 9.49999 7.90021 9.29999C10.6002 8.59999 13.5002 8.69999 16.4002 9.79999C18.3002 10.5 20.2002 10.8 22.3002 10.8C26.5002 10.8 30.7002 9.29999 34.6002 6.39999L36.1002 5.19998L36.6002 4.79999L35.7002 4.09998C35.4002 3.79998 35.0002 3.49999 34.6002 3.29999L34.0002 2.89999L33.5002 3.29999C33.3002 3.39999 33.2002 3.59998 33.0002 3.69998C27.7002 7.69998 22.4002 8.79999 17.4002 6.89999C13.8002 5.59999 10.2002 5.29999 6.60019 6.39999C6.30019 6.49999 6.00019 6.59998 5.60019 6.69998L5.40021 6.79999L5.10019 7.09998C5.10019 7.19998 5.00021 7.19999 4.90021 7.29999C4.50021 7.89999 4.00019 8.4 3.60019 9L1.7002 11.9L4.8002 10.3C5.3002 10.3 5.70018 10.1 6.00018 10Z" fill="url(#paint5_linear_17_727)"/>
<path d="M14.2 3.19998L14.5 3.29999C15.8 3.79999 17.8 4.29999 20.3 4.29999C22.9 4.29999 25.4 3.69998 27.9 2.69998L31 1.19998L28.9 0.5C28.3 0.3 27.7 0.1 27 0H26.7L26.4 0.0999756C26.1 0.199976 25.8 0.4 25.5 0.5C22.5 1.6 19.5 1.8 16.6 1C16.3 0.9 16 0.799982 15.7 0.699982L15.4 0.599976L15.1 0.699982C14.5 0.899982 13.9 1.09999 13.3 1.39999L11 2.39999L13.4 3.09998C13.6 2.99998 13.9 3.09998 14.2 3.19998Z" fill="url(#paint6_linear_17_727)"/>
<defs>
<linearGradient id="paint0_linear_17_727" x1="24.7001" y1="29.8" x2="24.7001" y2="39.3" gradientUnits="userSpaceOnUse">
<stop offset="0.677885" stop-color="white"/>
<stop offset="1" stop-color="#999999" stop-opacity="0"/>
</linearGradient>
<linearGradient id="paint1_linear_17_727" x1="21.85" y1="12.1" x2="21.85" y2="29.8" gradientUnits="userSpaceOnUse">
<stop offset="0.677885" stop-color="white"/>
<stop offset="1" stop-color="#999999" stop-opacity="0"/>
</linearGradient>
<linearGradient id="paint2_linear_17_727" x1="20.3" y1="7.09998" x2="20.3" y2="23" gradientUnits="userSpaceOnUse">
<stop offset="0.677885" stop-color="white"/>
<stop offset="1" stop-color="#999999" stop-opacity="0"/>
</linearGradient>
<linearGradient id="paint3_linear_17_727" x1="22.4999" y1="38.4477" x2="22.4999" y2="42.7" gradientUnits="userSpaceOnUse">
<stop offset="0.677885" stop-color="white"/>
<stop offset="1" stop-color="#999999" stop-opacity="0"/>
</linearGradient>
<linearGradient id="paint4_linear_17_727" x1="23.6498" y1="19.2" x2="23.6498" y2="35.4" gradientUnits="userSpaceOnUse">
<stop offset="0.677885" stop-color="white"/>
<stop offset="1" stop-color="#999999" stop-opacity="0"/>
</linearGradient>
<linearGradient id="paint5_linear_17_727" x1="19.1502" y1="2.89999" x2="19.1502" y2="11.9" gradientUnits="userSpaceOnUse">
<stop offset="0.677885" stop-color="white"/>
<stop offset="1" stop-color="#999999" stop-opacity="0"/>
</linearGradient>
<linearGradient id="paint6_linear_17_727" x1="21" y1="0" x2="21" y2="4.29999" gradientUnits="userSpaceOnUse">
<stop offset="0.677885" stop-color="white"/>
<stop offset="1" stop-color="#999999" stop-opacity="0"/>
</linearGradient>
</defs>
</svg>
